<?xml version="1.0" encoding="utf-8"?>
<!-- Generator: Adobe Illustrator 16.0.0, SVG Export Plug-In . SVG Version: 6.00 Build 0)  -->
<!DOCTYPE svg PUBLIC "-//W3C//DTD SVG 1.1//EN" "http://www.w3.org/Graphics/SVG/1.1/DTD/svg11.dtd">
<svg version="1.1" id="Layer_1" xmlns="http://www.w3.org/2000/svg" xmlns:xlink="http://www.w3.org/1999/xlink" x="0px" y="0px"
	 width="1280px" height="422.222px" viewBox="0 0 1280 422.222" enable-background="new 0 0 1280 422.222" xml:space="preserve">
<g id="_x2E_..Hi_:_x29_">
	<g>
		<path fill="#231F20" d="M55.014,358.747c40.201,0,40.201-62.34,0-62.34C14.812,296.407,14.812,358.747,55.014,358.747
			L55.014,358.747z"/>
	</g>
	<g>
		<path fill="#231F20" d="M163.065,358.747c40.201,0,40.201-62.34,0-62.34C122.863,296.407,122.863,358.747,163.065,358.747
			L163.065,358.747z"/>
	</g>
	<g>
		<path fill="#231F20" d="M262.806,358.747c40.201,0,40.201-62.34,0-62.34C222.604,296.407,222.604,358.747,262.806,358.747
			L262.806,358.747z"/>
	</g>
	<g>
		<path fill="#231F20" d="M467.454,32.49c0.379,93.292,20.386,185.178,20.78,278.442c0.085,20.129,31.306,20.137,31.219,0
			c-0.394-93.264-20.4-185.15-20.779-278.442C498.594,12.363,467.373,12.355,467.454,32.49L467.454,32.49z"/>
	</g>
	<g>
		<path fill="#231F20" d="M604.597,40.804c8.326,94.275,4.871,189.689,25.493,282.589c4.363,19.654,34.46,11.318,30.104-8.301
			c-19.998-90.094-16.301-182.842-24.376-274.289C634.062,20.911,602.826,20.74,604.597,40.804L604.597,40.804z"/>
	</g>
	<g>
		<path fill="#231F20" d="M516.312,226.803c44.328,0,88.657,0,132.986,0c20.133,0,20.133-31.219,0-31.219
			c-44.33,0-88.658,0-132.986,0C496.179,195.584,496.179,226.803,516.312,226.803L516.312,226.803z"/>
	</g>
	<g>
		<path fill="#231F20" d="M729.271,219.506c0,45.713,0,91.426,0,137.141c0,20.133,31.223,20.133,31.223,0
			c0-45.715,0-91.428,0-137.141C760.494,199.372,729.271,199.372,729.271,219.506L729.271,219.506z"/>
	</g>
	<g>
		<path fill="#231F20" d="M744.884,118.751c20.132,0,20.132-31.22,0-31.22C724.751,87.531,724.751,118.751,744.884,118.751
			L744.884,118.751z"/>
	</g>
	<g>
		<path fill="#231F20" d="M1006.699,239.272c20.137,0,20.137-31.222,0-31.222C986.568,208.05,986.568,239.272,1006.699,239.272
			L1006.699,239.272z"/>
	</g>
	<g>
		<path fill="#231F20" d="M1123.062,226.803c20.137,0,20.137-31.219,0-31.219C1102.932,195.584,1102.932,226.803,1123.062,226.803
			L1123.062,226.803z"/>
	</g>
	<g>
		<path fill="#231F20" d="M929.168,346.907c42.459,41.623,105.801,61.934,163.767,67.576c56.369,5.484,122.828-9.793,147.505-66.58
			c7.938-18.268-18.951-34.18-26.958-15.76c-21.138,48.639-76.53,55.404-123.664,50.814c-48.312-4.703-103.33-23.578-138.57-58.127
			C936.863,310.731,914.773,332.793,929.168,346.907L929.168,346.907z"/>
	</g>
</g>
</svg>
