<?xml version="1.0" encoding="utf-8"?>
<!-- Generator: Adobe Illustrator 16.0.0, SVG Export Plug-In . SVG Version: 6.00 Build 0)  -->
<!DOCTYPE svg PUBLIC "-//W3C//DTD SVG 1.1//EN" "http://www.w3.org/Graphics/SVG/1.1/DTD/svg11.dtd">
<svg version="1.1" id="Layer_1" xmlns="http://www.w3.org/2000/svg" xmlns:xlink="http://www.w3.org/1999/xlink" x="0px" y="0px"
	 width="1280px" height="1280px" viewBox="0 0 1280 1280" style="enable-background:new 0 0 1280 1280;" xml:space="preserve">
<style type="text/css">
<![CDATA[
	.st0{fill:#ECECEC;}
]]>
</style>
<path class="st0" d="M542.057,1272.782l210.978-0.354l42.558-144.23c31.087-9.703,60.889-20.905,89.178-35.978l134.297,73.791
	l148.735-149.019l-73.594-133.852c14.968-28.342,24.901-58.065,34.391-89.075l144.193-43.144l-0.354-210.869l-144.337-42.668
	c-9.597-31.087-20.918-60.89-35.979-89.178l73.891-134.199l-149.019-149.054l-133.95,73.814
	c-28.228-14.969-57.967-31.437-89.089-40.829L750.899,7.214L539.92,7.566l-42.645,150.873c-31.088,9.5-60.884,24.135-89.063,39.198
	l-134.305-72.286L124.963,275.127l73.694,134.376c-14.966,28.341-31.326,58.188-40.818,89.31L7.212,542.187l0.354,210.868
	l150.774,42.647c9.597,30.977,24.125,60.882,39.197,89.173l-72.286,134.193l149.877,148.836l134.266-73.588
	c28.351,14.968,58.176,24.782,89.407,34.383L542.057,1272.782z M330.133,646.96c-0.296-174.611,141.149-316.433,315.771-316.729
	c174.612-0.296,316.547,141.052,316.841,315.662c0.295,174.731-141.162,316.656-315.771,316.953
	C472.351,963.139,330.427,821.69,330.133,646.96z"/>
</svg>
