<?xml version="1.0" encoding="utf-8"?>
<!-- Generator: Adobe Illustrator 16.0.0, SVG Export Plug-In . SVG Version: 6.00 Build 0)  -->
<!DOCTYPE svg PUBLIC "-//W3C//DTD SVG 1.1//EN" "http://www.w3.org/Graphics/SVG/1.1/DTD/svg11.dtd">
<svg version="1.1" id="Layer_1" xmlns="http://www.w3.org/2000/svg" xmlns:xlink="http://www.w3.org/1999/xlink" x="0px" y="0px"
	 width="1280px" height="1280px" viewBox="0 0 1280 1280" style="enable-background:new 0 0 1280 1280;" xml:space="preserve">
<style type="text/css">
<![CDATA[
	.st0{fill:#ECECEC;}
]]>
</style>
<g>
	<g>
		<path class="st0" d="M640,175.603c123.959,0,240.498,48.271,328.148,135.924c87.653,87.65,135.924,204.189,135.924,328.148
			s-48.271,240.498-135.924,328.148c-87.65,87.653-204.189,135.924-328.148,135.924s-240.498-48.271-328.149-135.924
			c-87.653-87.65-135.925-204.189-135.925-328.148s48.271-240.498,135.925-328.148C399.502,223.875,516.041,175.603,640,175.603
			 M640-0.917C286.21-0.917-0.593,285.886-0.593,639.676c0,353.79,286.803,640.593,640.593,640.593
			c353.79,0,640.593-286.803,640.593-640.593C1280.593,285.886,993.79-0.917,640-0.917L640-0.917z"/>
	</g>
	<polygon class="st0" points="806.263,514.858 681.444,390.04 556.627,265.222 431.809,390.04 556.627,514.858 681.444,639.676 
		556.627,764.494 431.809,889.312 556.627,1014.129 681.444,889.312 806.263,764.494 931.08,639.676 	"/>
</g>
</svg>
