<?xml version="1.0" encoding="utf-8"?>
<!-- Generator: Adobe Illustrator 16.0.0, SVG Export Plug-In . SVG Version: 6.00 Build 0)  -->
<!DOCTYPE svg PUBLIC "-//W3C//DTD SVG 1.1//EN" "http://www.w3.org/Graphics/SVG/1.1/DTD/svg11.dtd">
<svg version="1.1" id="Layer_1" xmlns="http://www.w3.org/2000/svg" xmlns:xlink="http://www.w3.org/1999/xlink" x="0px" y="0px"
	 width="1280px" height="561.905px" viewBox="0 0 1280 561.905" style="enable-background:new 0 0 1280 561.905;"
	 xml:space="preserve">
<style type="text/css">
<![CDATA[
	.st0{fill:#FFFFFF;}
]]>
</style>
<g>
	<path class="st0" d="M510.637,199.862c23.887,0,46.808-19.816,50.793-44.261c4.721-23.797-11.482-43.605-35.354-43.605
		c-23.872,0-46.797,19.808-50.839,43.605C470.577,180.046,486.105,199.862,510.637,199.862z"/>
	<path class="st0" d="M836.662,434.045c-5.436,4.721-11.489,7.63-18.177,7.63c-16.781,0-23.868-8.429-23.868-26.529
		c0-28.493,28.147-99.821,28.147-132.186c0-43.234-23.271-68.284-70.979-68.284c-30.064,0-61.23,19.341-74.439,36.317
		c0,0,4.007-13.896,5.377-19.238c1.476-5.647-1.568-11.19-9.013-11.19c-10.656,0-36.505,0-46.627,0
		c-9.925,0-12.67,5.286-14.125,11.102c-0.582,2.333-17.38,68.07-33.516,131.181c-11.035,43.209-37.842,79.318-66.502,79.318
		c-14.742,0-21.302-9.197-21.302-24.864c0-13.523,8.771-46.888,19.234-88.315c12.73-50.417,23.965-91.931,25.163-96.786
		c1.563-6.217-1.224-11.636-9.263-11.636c-10.081,0-36.255,0-46.916,0c-8.494,0-11.531,4.448-13.322,10.617
		c0,0-13.203,49.803-27.189,105.241c-10.151,40.237-21.367,81.22-21.367,100.464c0,34.361,15.491,60.264,58.058,60.264
		c32.858,0,58.862-16.604,78.716-37.749c-2.924,11.451-4.782,18.698-4.975,19.43c-1.711,6.55,0.364,12.334,8.105,12.334
		c10.662,0,37.499,0,48.006,0c8.359,0,11.571-3.347,13.313-10.603c1.684-6.936,37.543-147.448,37.543-147.448
		c9.475-37.74,32.91-62.735,65.885-62.735c15.646,0,29.173,10.317,27.605,30.367c-1.736,22.061-28.438,101.279-28.438,136.057
		c0,26.319,9.79,60.365,59.521,60.365c33.898,0,58.859-16.188,77.007-37.09L836.662,434.045z"/>
	<path class="st0" d="M233.805,4.252C81.803,4.252,5.17,112.833,5.17,203.368c0,54.82,20.827,103.587,65.508,121.777
		c7.327,2.972,13.893,0.101,16.02-7.987c1.474-5.591,4.969-19.702,6.533-25.575c2.14-7.995,1.307-10.795-4.601-17.765
		c-12.882-15.146-21.119-34.748-21.119-62.509c0-80.551,60.491-152.657,157.512-152.657c85.911,0,133.112,52.302,133.112,122.146
		c0,91.905-40.822,169.468-101.424,169.468c-33.468,0-58.522-27.572-50.493-61.391c9.618-40.381,28.245-83.96,28.245-113.109
		c0-26.088-14.059-47.846-43.149-47.846c-34.214,0-61.695,35.256-61.695,82.499c0,30.08,10.202,50.437,10.202,50.437
		S104.808,408.66,98.673,434.534c-12.225,51.554-1.839,114.752-0.961,121.137c0.518,3.779,5.396,4.68,7.603,1.812
		c3.155-4.099,43.901-54.22,57.757-104.298c3.922-14.184,22.504-87.618,22.504-87.618c11.115,21.128,43.605,39.738,78.149,39.738
		c102.843,0,172.616-93.419,172.616-218.451C436.34,92.302,355.962,4.252,233.805,4.252z"/>
	<path class="st0" d="M1028.502,199.812c23.771,0,46.594-19.729,50.562-44.065c4.695-23.69-11.43-43.414-35.189-43.414
		c-23.78,0-46.598,19.724-50.62,43.414C988.617,180.083,1004.069,199.812,1028.502,199.812z"/>
	<path class="st0" d="M1235.108,412.397c-11.392,16.499-26.529,28.862-42.306,28.862c-14.662,0-22.852-9.181-22.852-24.76
		c0-13.465,9.521-46.358,19.934-87.588c3.494-13.806,8.795-34.845,14.663-58.169c26.538,0,47.851,0,48.859,0
		c7.276,0,11.548-2.949,13.2-9.728c2.345-9.759,6.625-26.784,7.844-31.439c1.576-6.105-1.959-10.729-8.777-10.729
		c-1.605,0-48.053,0-48.053,0s22.129-87.933,22.646-90.194c2.127-8.938-5.372-14.1-13.233-12.456c0,0-37.14,7.247-44.025,8.676
		c-6.928,1.396-12.291,5.183-14.797,15.125c-0.319,1.278-19.669,78.849-19.669,78.849s-37.694,0-38.581,0
		c-7.269,0-11.548,2.959-13.175,9.723c-2.341,9.749-6.659,26.792-7.84,31.452c-1.605,6.102,1.968,10.722,8.769,10.722
		c1.379,0,17.24,0,37.829,0c-0.269,1.083-13.661,51.859-24.499,97.317c-5.104,21.863-36.08,73.03-64.064,73.03
		c-14.662,0-37.392-9.21-37.392-24.789c0-13.473,8.728-46.689,19.14-87.928c12.678-50.196,23.864-91.534,25.054-96.361
		c1.56-6.192-1.219-11.581-9.219-11.581c-10.034,0-36.101,0-46.707,0c-8.466,0-11.488,4.422-13.267,10.568
		c0,0-13.149,49.578-27.067,104.773c-10.11,40.057-21.275,80.854-21.275,100.018c0,34.21,46.435,60.004,88.815,60.004
		c33.748,0,57.423-15.579,75.486-36.375c6.612,22.07,24.137,36.922,56.287,36.922c53.416,0,85.616-31.574,104.537-63.278
		L1235.108,412.397z"/>
</g>
</svg>
