<?xml version="1.0" encoding="utf-8"?>
<!-- Generator: Adobe Illustrator 16.0.0, SVG Export Plug-In . SVG Version: 6.00 Build 0)  -->
<!DOCTYPE svg PUBLIC "-//W3C//DTD SVG 1.1//EN" "http://www.w3.org/Graphics/SVG/1.1/DTD/svg11.dtd">
<svg version="1.1" id="Layer_1" xmlns="http://www.w3.org/2000/svg" xmlns:xlink="http://www.w3.org/1999/xlink" x="0px" y="0px"
	 width="1280px" height="333.193px" viewBox="0 0 1280 333.193" style="enable-background:new 0 0 1280 333.193;"
	 xml:space="preserve">
<style type="text/css">
<![CDATA[
	.st0{fill:#FFFFFF;}
]]>
</style>
<g>
	<path class="st0" d="M108.167,55.913H6.122V3.511h261.087v52.401H165.164v269.362h-56.998V55.913z"/>
	<path class="st0" d="M250.665,82.573h56.998l48.724,166.396l53.779-167.313h47.805l53.781,167.313l49.644-166.396h56.079
		l-79.521,244.539H487.85l-54.24-165.938l-54.701,165.938h-49.644L250.665,82.573z"/>
	<path class="st0" d="M618.861,204.841v-0.918c0-69.406,49.183-126.405,118.594-126.405c77.223,0,116.295,60.673,116.295,130.544
		c0,5.055-0.46,10.114-0.921,15.627H674.48c5.977,39.532,34.014,61.6,69.869,61.6c27.119,0,46.426-10.118,65.73-28.965
		l32.639,28.965c-22.985,27.576-54.703,45.502-99.287,45.502C673.103,330.79,618.861,279.769,618.861,204.841z M798.591,186.915
		c-3.677-35.852-24.823-63.89-61.597-63.89c-34.013,0-57.918,26.202-62.974,63.89H798.591z"/>
	<path class="st0" d="M873.512,204.841v-0.918c0-69.406,49.186-126.405,118.594-126.405c77.223,0,116.292,60.673,116.292,130.544
		c0,5.055-0.457,10.114-0.918,15.627H929.131c5.977,39.532,34.017,61.6,69.869,61.6c27.119,0,46.426-10.118,65.73-28.965
		l32.635,28.965c-22.981,27.576-54.699,45.502-99.287,45.502C927.753,330.79,873.512,279.769,873.512,204.841z M1053.238,186.915
		c-3.678-35.852-24.82-63.89-61.594-63.89c-34.016,0-57.915,26.202-62.974,63.89H1053.238z"/>
	<path class="st0" d="M1152.988,258.165V130.378h-30.796V82.573h30.796v-66.65h55.617v66.65h65.273v47.805h-65.273v119.051
		c0,21.604,11.031,30.34,29.878,30.34c12.414,0,23.445-2.757,34.478-8.275v45.509c-13.791,7.815-28.961,12.413-50.104,12.413
		C1181.946,329.415,1152.988,311.482,1152.988,258.165z"/>
</g>
</svg>
